# xmcd
#
# Track frame offsets:
#	150
#	16589
#	32823
#	49467
#	66930
#	84714
#	98520
#	114842
#	133211
#	149591
#	168194
#	185219
#	197019
#
# Disc length: 2910 seconds
#
# Revision: 1
# Processed by: cddbd v1.5.1PL0 Copyright (c) Steve Scherf et al.
# Submitted via: audiograbber 1.83.01
#
DISCID=b60b5c0d
DTITLE=Fleetwood Mac - Tango in The Night
DYEAR=1900
DGENRE=
TTITLE0=Big Love
TTITLE1=Seven Wonders
TTITLE2=Everywhere
TTITLE3=Caroline
TTITLE4=Tango In The Night
TTITLE5=Mystified
TTITLE6=Little Lies
TTITLE7=Family Man
TTITLE8=Welcome To The Room
TTITLE9=Isn't It Midnight
TTITLE10=When I See You Again
TTITLE11=You And I
TTITLE12=No Question Asked
EXTD=
EXTT0=
EXTT1=
EXTT2=
EXTT3=
EXTT4=
EXTT5=
EXTT6=
EXTT7=
EXTT8=
EXTT9=
EXTT10=
EXTT11=
EXTT12=
PLAYORDER=
